# xmcd
#
# Track frame offsets: 
#        150
#        16025
#        28220
#        42790
#        64752
#        78408
#        89720
#        105595
#        115771
#        132286
#
# Disc length: 1898 seconds
#
# Revision: 1
# Processed by: cddbd v1.5.2PL0 Copyright (c) Steve Scherf et al.
# Submitted via: ExactAudioCopy v1.0b3
#
DISCID=7a07680a
DTITLE=Sixty Grit - I've Been Redeemed
DYEAR=2005
DGENRE=Blues
TTITLE0=Tell You 'Bout My Jesus
TTITLE1=Goin' to the River
TTITLE2=It Takes Faith
TTITLE3=Where Am I
TTITLE4=I've Been Waiting
TTITLE5=The Lord's Prayer
TTITLE6=I've Been Redeemed
TTITLE7=You're My Jesus
TTITLE8=Testimony
TTITLE9=I'd Rather Have Jesus
EXTD=
EXTT0=
EXTT1=
EXTT2=
EXTT3=
EXTT4=
EXTT5=
EXTT6=
EXTT7=
EXTT8=
EXTT9=
PLAYORDER=
